<svg xmlns="http://www.w3.org/2000/svg" width="153.633" height="120.466" viewBox="0 0 40.649 31.873"><path d="M178.972 180.074c-.731-11.29 13.598-31.171 23.406-48.748 11.825 17.927 19.582 35.663 24.735 51.043 8.656-8.31 8.387-12.203 9.985-19.601-20.932-35.079-24.43-49.53-35.505-72.826-8.676 24.73-17.028 39.682-33.82 70.9-.3 7.07 7.64 19.68 11.199 19.232z" style="fill:#0f0;stroke:#0f0" transform="matrix(.24298 0 0 .18094 -28.854 -16.037)"/><path d="M155.743 116.942c-17.783 31.946-26.854 40.632-24.328 57.66 12.126 31.614 49.462 40.487 64.073 70.265-2.508-10.048-5.715-16.192-9.288-24.295-7.066-9.573-10.508-13.56-17.329-22.548-29.636-39.057-20.014-33.053-13.128-81.082z" style="fill:#0f0;stroke:#0f0" transform="matrix(.24298 0 0 .18094 -28.854 -16.037)"/><path d="M249.09 117.85c13.543 21.731 25.811 44.716 23.862 51.806-2.428 15.99-8.781 22.418-15.254 27.779-28.225 23.377-32.307 27.689-47.155 47.084 5.658-11.307 3.054-21.622 39.764-69.245 7.597-12.227 1.277-38.013-1.217-57.425z" style="fill:#0f0;fill-opacity:1;stroke:#0f0" transform="matrix(.24298 0 0 .18094 -28.854 -16.037)"/><path d="m203.011 167.596 11.873 21.344-11.728 21.203-13.348-19.745z" style="fill:navy;stroke:navy" transform="matrix(.24298 0 0 .18094 -28.854 -16.037)"/><path d="M120.765 177.337c4.194 27.66 30.868 42.05 49.29 52.779 12.855 7.486 23.603 29.014 27.057 33.815-15.035-17.345-48.41-23.242-68.872-40.414-12.484-10.882-8.73-31.273-7.475-46.18zM207.949 264.496c6.826-12.094 8.708-20.769 21.29-29.616 17.36-12.21 46.525-28.557 54.368-56.504 3.485 16.163 3.28 27.795-8.966 44.039-29.25 20.43-50.979 19.61-66.692 42.081z" style="fill:#2b0000;stroke:#2b0000" transform="matrix(.24298 0 0 .18094 -28.854 -16.037)"/></svg>