<?xml version="1.0" encoding="UTF-8"?>
<svg class="icon icon-logo" width="110px" height="110px" aria-hidden="true" focusable="false" role="presentation" viewBox="19.314 22.266 146.96 149.79" xmlns="http://www.w3.org/2000/svg">
<path d="m101.62 22.74c-0.901 0.069-1.881 0.835-2.905 2.391-8.258 12.548-3.589 24.716-15.257 67.639-3.268 12.019-11.053 26.424-22.317 39.638-18.25 21.41-41.838 39.695-41.826 39.645 92.465-29.247 94.216-150.22 82.305-149.31z" fill="#0c395d" fill-rule="evenodd" stroke="#0c395d" stroke-width=".46228px"/>
<path d="m166.27 137.32c-47.117 16.823-63.761-7.635-68.871-37.786-7.267-42.877 13.315-92.62 0.248-72.776-13.009 19.753-18.909 54.393-10.751 87.913 6.692 27.499 24.374 40.493 42.936 39.773 27.069-1.05 36.438-17.124 36.438-17.124z" fill="#fec240" fill-rule="evenodd" stroke="#fec240" stroke-width="1px"/>
</svg>
