<?xml version="1.0" encoding="UTF-8" standalone="no"?>
<!-- Created with Inkscape (http://www.inkscape.org/) -->

<svg
        version="1.1"
        id="svg3386"
        width="320"
        height="170"
        viewBox="0 0 320 170"
        sodipodi:docname="artanis_003.svg"
        inkscape:version="1.2.2 (b0a8486541, 2022-12-01)"
        inkscape:export-filename="artanis_003.png"
        inkscape:export-xdpi="94.763634"
        inkscape:export-ydpi="94.763634"
        xmlns:inkscape="http://www.inkscape.org/namespaces/inkscape"
        xmlns:sodipodi="http://sodipodi.sourceforge.net/DTD/sodipodi-0.dtd"
        xmlns="http://www.w3.org/2000/svg"
>
  <defs
     id="defs3390" />
  <sodipodi:namedview
     id="namedview3388"
     pagecolor="#ffffff"
     bordercolor="#000000"
     borderopacity="0.25"
     inkscape:showpageshadow="2"
     inkscape:pageopacity="0.0"
     inkscape:pagecheckerboard="0"
     inkscape:deskcolor="#d1d1d1"
     showgrid="false"
     inkscape:zoom="3.3215974"
     inkscape:cx="203.21548"
     inkscape:cy="90.92011"
     inkscape:window-width="1920"
     inkscape:window-height="1128"
     inkscape:window-x="0"
     inkscape:window-y="0"
     inkscape:window-maximized="1"
     inkscape:current-layer="g3392" />
  <g
     inkscape:groupmode="layer"
     inkscape:label="Image"
     id="g3392">
    <g
       id="g344"
       transform="matrix(1.4565978,0,0,1.3698844,-113.70385,-57.83287)">
      <g
         id="g122"
         transform="matrix(0.63048294,0,0,0.49921968,61.766956,1.5456753)">
        <path
           style="fill:#00ff00;stroke:#00ff00"
           d="m 178.97204,180.07351 c -0.73104,-11.29034 13.59789,-31.17082 23.40558,-48.7472 11.82509,17.92652 19.58232,35.66291 24.73496,51.04313 8.65608,-8.31122 8.38783,-12.20349 9.98534,-19.60186 -20.932,-35.07838 -24.43046,-49.52871 -35.50503,-72.825529 -8.67614,24.730589 -17.02764,39.681649 -33.81944,70.899939 -0.30002,7.06954 7.63981,19.67939 11.19859,19.23152 z"
           id="path3610"
           inkscape:transform-center-x="0.19142322"
           inkscape:transform-center-y="3.4058631"
           sodipodi:nodetypes="ccccccc" />
        <path
           style="fill:#00ff00;stroke:#00ff00"
           d="m 155.74343,116.94194 c -17.78338,31.94641 -26.85471,40.63204 -24.32804,57.66034 12.12539,31.61341 49.46194,40.487 64.07291,70.26447 -2.50824,-10.04812 -5.7148,-16.19139 -9.28866,-24.2943 -7.06552,-9.57302 -10.5081,-13.56053 -17.3285,-22.54877 -29.63663,-39.05653 -20.01396,-33.05318 -13.12771,-81.08174 z"
           id="path3614"
           sodipodi:nodetypes="ccccsc" />
        <path
           style="fill:#00ff00;fill-opacity:1;stroke:#00ff00"
           d="m 249.08996,117.84931 c 13.54348,21.73172 25.81133,44.71675 23.86252,51.80626 -2.42842,15.99009 -8.78149,22.41803 -15.25399,27.77894 -28.22507,23.37765 -32.30759,27.68917 -47.15502,47.08493 5.6572,-11.3073 3.05326,-21.62236 39.76313,-69.24512 7.59727,-12.227 1.27744,-38.01376 -1.21664,-57.42501 z"
           id="path3616"
           sodipodi:nodetypes="ccsccc" />
        <path
           style="fill:#000080;stroke:#000080"
           d="m 203.01139,167.59608 11.87278,21.34433 -11.72854,21.20276 -13.34769,-19.74489 z"
           id="path3618" />
        <path
           style="fill:#2b0000;stroke:#2b0000"
           d="m 120.76547,177.33734 c 4.19348,27.65907 30.86714,42.04939 49.28995,52.77844 12.85413,7.48597 23.60306,29.0139 27.05645,33.8148 -15.03451,-17.34435 -48.40893,-23.242 -68.87233,-40.41362 -12.4833,-10.88231 -8.73037,-31.27334 -7.47407,-46.17962 z"
           id="path3620"
           sodipodi:nodetypes="csccc" />
        <path
           style="fill:#2b0000;stroke:#2b0000"
           d="m 207.94869,264.49618 c 6.82642,-12.09401 8.70846,-20.76894 21.28975,-29.61646 17.36111,-12.20882 46.52572,-28.55705 54.36905,-56.50342 3.48403,16.16231 3.27983,27.79493 -8.96603,44.03859 -29.24993,20.43048 -50.97908,19.6104 -66.69277,42.08129 z"
           id="path3622"
           sodipodi:nodetypes="csccc" />
      </g>
      <text
         xml:space="preserve"
         style="font-style:normal;font-variant:normal;font-weight:normal;font-stretch:normal;font-size:36.3637px;font-family:'DejaVu Sans Mono';-inkscape-font-specification:'DejaVu Sans Mono';fill:#2b0000;stroke:#2b0000;stroke-width:1.94805"
         x="59.396069"
         y="225.32835"
         id="text333"
         transform="scale(1.3921607,0.71830786)"><tspan
           sodipodi:role="line"
           id="tspan331"
           x="59.396069"
           y="225.32835"
           style="font-style:normal;font-variant:normal;font-weight:normal;font-stretch:normal;font-family:'DejaVu Sans Mono';-inkscape-font-specification:'DejaVu Sans Mono';fill:#2b0000;stroke:#2b0000;stroke-width:1.94805">ARTANIS</tspan></text>
    </g>
  </g>
</svg>
