<?xml version="1.0" encoding="UTF-8" standalone="no"?>
<!-- Created with Inkscape (http://www.inkscape.org/) -->

<svg
   version="1.1"
   id="svg3386"
   width="320"
   height="170"
   viewBox="0 0 320 170"
   sodipodi:docname="artanis_003_dark.svg"
   inkscape:version="1.2.2 (b0a8486541, 2022-12-01)"
   inkscape:export-filename="artanis_003.png"
   inkscape:export-xdpi="94.763634"
   inkscape:export-ydpi="94.763634"
   xmlns:inkscape="http://www.inkscape.org/namespaces/inkscape"
   xmlns:sodipodi="http://sodipodi.sourceforge.net/DTD/sodipodi-0.dtd"
   xmlns="http://www.w3.org/2000/svg"
   xmlns:svg="http://www.w3.org/2000/svg">
  <defs
     id="defs3390" />
  <sodipodi:namedview
     id="namedview3388"
     pagecolor="#ffffff"
     bordercolor="#000000"
     borderopacity="0.25"
     inkscape:showpageshadow="2"
     inkscape:pageopacity="0.0"
     inkscape:pagecheckerboard="true"
     inkscape:deskcolor="#d1d1d1"
     showgrid="false"
     inkscape:zoom="3.3215974"
     inkscape:cx="203.21548"
     inkscape:cy="90.92011"
     inkscape:window-width="1920"
     inkscape:window-height="1128"
     inkscape:window-x="0"
     inkscape:window-y="0"
     inkscape:window-maximized="1"
     inkscape:current-layer="g344" />
  <g
     inkscape:groupmode="layer"
     inkscape:label="Image"
     id="g3392">
    <g
       id="g344"
       transform="matrix(1.4565978,0,0,1.3698844,-113.70385,-57.83287)">
      <path
         style="fill:#00ff00;stroke:#00ff00;stroke-width:0.561025"
         d="m 174.60577,91.441915 c -0.4609,-5.63636 8.57324,-15.561086 14.75682,-24.335561 7.45552,8.949271 12.34632,17.803626 15.59497,25.481735 5.45751,-4.149125 5.28839,-6.092223 6.29559,-9.785634 -13.19727,-17.511818 -15.40299,-24.725707 -22.38532,-36.355938 -5.47015,12.345997 -10.73563,19.80986 -21.32258,35.394645 -0.18915,3.529254 4.81677,9.824339 7.06052,9.600753 z"
         id="path3610"
         inkscape:transform-center-x="0.19142322"
         inkscape:transform-center-y="3.4058631"
         sodipodi:nodetypes="ccccccc" />
      <path
         style="fill:#00ff00;stroke:#00ff00;stroke-width:0.561025"
         d="M 159.96053,59.925393 C 148.74841,75.87367 143.0291,80.209707 144.62212,88.71057 c 7.64485,15.78204 31.18491,20.21191 40.39687,35.07741 -1.5814,-5.01622 -3.60308,-8.08306 -5.85634,-12.1282 -4.45469,-4.77904 -6.62518,-6.76968 -10.92532,-11.25679 -18.68539,-19.497785 -12.61846,-16.500794 -8.2768,-40.477597 z"
         id="path3614"
         sodipodi:nodetypes="ccccsc" />
      <path
         style="fill:#00ff00;fill-opacity:1;stroke:#00ff00;stroke-width:0.561025"
         d="m 218.81393,60.37837 c 8.53893,10.848902 16.2736,22.323482 15.04491,25.862705 -1.53108,7.982567 -5.53658,11.191521 -9.61738,13.867795 -17.79543,11.67058 -20.36939,13.82298 -29.73044,23.50572 3.56677,-5.64482 1.92503,-10.79431 25.06998,-34.568525 4.78995,-6.103959 0.8054,-18.977217 -0.76707,-28.667695 z"
         id="path3616"
         sodipodi:nodetypes="ccsccc" />
      <path
         style="fill:#000080;stroke:#000080;stroke-width:0.561025"
         d="m 189.76217,85.212937 7.48559,10.655509 -7.39465,10.584834 -8.41549,-9.857036 z"
         id="path3618" />
      <path
         style="fill:#000080;stroke:#2b0000;stroke-width:0.561025"
         d="m 137.90752,90.075965 c 2.64392,13.807955 19.46121,20.991885 31.07648,26.348035 8.10431,3.73714 14.88132,14.48431 17.05863,16.88101 -9.479,-8.65864 -30.52101,-11.60286 -43.42283,-20.17527 -7.87051,-5.43266 -5.50435,-15.612266 -4.71228,-23.053775 z"
         id="path3620"
         sodipodi:nodetypes="csccc" />
      <path
         style="fill:#000080;stroke:#2b0000;stroke-width:0.561025"
         d="m 192.87506,133.58737 c 4.30394,-6.03756 5.49053,-10.36826 13.42282,-14.78512 10.94589,-6.09488 29.33367,-14.25624 34.27876,-28.207615 2.19662,8.068543 2.06788,13.875775 -5.65293,21.984935 -18.44158,10.19929 -32.14144,9.78989 -42.04865,21.0078 z"
         id="path3622"
         sodipodi:nodetypes="csccc" />
      <text
         xml:space="preserve"
         style="font-style:normal;font-variant:normal;font-weight:normal;font-stretch:normal;font-size:36.3637px;font-family:'DejaVu Sans Mono';-inkscape-font-specification:'DejaVu Sans Mono';fill:#2b0000;stroke:#2b0000;stroke-width:1.94805"
         x="59.396069"
         y="225.32835"
         id="text333"
         transform="scale(1.3921607,0.71830786)"><tspan
           sodipodi:role="line"
           id="tspan331"
           x="59.396069"
           y="225.32835"
           style="font-style:normal;font-variant:normal;font-weight:normal;font-stretch:normal;font-family:'DejaVu Sans Mono';-inkscape-font-specification:'DejaVu Sans Mono';fill:#e6e6e6;stroke:#e6e6e6;stroke-width:1.94805">ARTANIS</tspan></text>
    </g>
  </g>
</svg>
